<?xml version="1.0" encoding="UTF-8"?>
<svg xmlns="http://www.w3.org/2000/svg" viewBox="0 0 500 500">
    <title>Mistribe logo</title>
    <g>
        <polygon points="165,337.2 100,337.2 250,100 400,337.2 335,337.2 319,316 250,423.4 179,316" stroke="black"
                 stroke-width="15" fill="none"></polygon>
        <path d="M 287.5 369.7 L 250 316 L 212.5 369.7" stroke="black" stroke-width="15" fill="none"></path>
    </g>
    <path d="M 256.3 373.2 L 250 363.2 L 243.7 373.2" stroke="black" stroke-width="8" fill="none" style=""></path>
    <g stroke="black" stroke-width="9" style="" transform="matrix(0.622093, 0, 0, 0.796512, 48.69186, 43.604649)">
        <path d="M 126.607 322.602 L 126.607 182.164" stroke-linecap="round" style="stroke-width: 12.6885px;"></path>
        <path d="M 127.593 228.278 L 155.257 195.179" stroke-linecap="round" style="stroke-width: 12.6885px;"></path>
        <path d="M 127.593 261.377 L 155.257 228.278" stroke-linecap="round" style="stroke-width: 12.6885px;"></path>
        <path d="M 127.593 296.85 L 99.93 263.751" stroke-linecap="round" style="stroke-width: 12.6885px;"></path>
        <path d="M 127.593 263.751 L 99.93 230.652" stroke-linecap="round" style="stroke-width: 12.6885px;"></path>
        <path d="M 127.593 230.652 L 99.93 197.553" stroke-linecap="round" style="stroke-width: 12.6885px;"></path>
        <g transform="matrix(-1, 0, 0, 1, 1045.581177, 18.832109)" style="">
            <path d="M 524.883 302.305 L 524.883 161.867" stroke-linecap="round"
                  style="stroke-width: 12.6885px;"></path>
            <path d="M 525.869 207.981 L 553.533 174.882" stroke-linecap="round"
                  style="stroke-width: 12.6885px;"></path>
            <path d="M 525.869 241.08 L 553.533 207.981" stroke-linecap="round" style="stroke-width: 12.6885px;"></path>
            <path d="M 525.869 276.553 L 498.206 243.454" stroke-linecap="round"
                  style="stroke-width: 12.6885px;"></path>
            <path d="M 525.869 243.454 L 498.206 210.355" stroke-linecap="round"
                  style="stroke-width: 12.6885px;"></path>
            <path d="M 525.869 210.355 L 498.206 177.256" stroke-linecap="round"
                  style="stroke-width: 12.6885px;"></path>
        </g>
    </g>
    <path fill="rgb(0, 0, 0)" stroke="none"
          d="M 287.091 265.7 C 286.891 265.7 286.591 265.6 286.291 265.5 C 286.091 265.4 285.791 265.1 285.691 264.9 C 285.491 264.7 285.391 264.4 285.291 264.1 C 285.291 263.7 285.291 263.3 285.391 263 C 285.391 262.6 285.591 262.2 285.891 261.9 C 286.091 261.5 286.491 261.1 286.891 260.9 C 287.291 260.6 287.791 260.3 288.291 260.2 C 288.791 260 289.491 260 289.991 260 C 290.691 260 291.391 260.1 291.991 260.3 C 292.591 260.6 293.291 260.9 293.891 261.3 C 294.491 261.8 295.091 262.4 295.591 262.9 C 296.091 263.6 296.491 264.4 296.791 265.2 C 297.091 266 297.291 266.9 297.391 267.8 C 297.491 268.7 297.391 269.8 297.191 270.7 C 296.991 271.7 296.591 272.8 296.091 273.6 C 295.591 274.6 294.891 275.6 294.191 276.3 C 293.391 277.1 292.291 277.9 291.391 278.5 C 290.291 279.1 288.991 279.6 287.891 279.9 C 286.591 280.3 285.191 280.4 283.891 280.4 C 282.591 280.4 281.091 280.2 279.791 279.8 C 278.391 279.4 276.891 278.8 275.791 278.1 C 274.491 277.3 273.191 276.2 272.191 275.2 C 271.191 274.1 270.091 272.6 269.391 271.3 C 268.691 269.9 268.091 268.2 267.691 266.6 C 267.391 265 267.291 263.2 267.391 261.5 C 267.491 259.8 267.791 257.9 268.391 256.3 C 268.991 254.6 269.891 252.8 270.891 251.3 C 271.891 249.8 273.391 248.2 274.791 247 C 276.291 245.7 278.091 244.5 279.891 243.7 C 281.691 242.9 283.891 242.2 285.791 241.8 C 287.891 241.5 290.291 241.4 292.291 241.5 C 294.391 241.7 296.891 242.3 298.891 243 C 300.891 243.7 303.191 244.9 304.991 246.2 C 306.791 247.4 308.691 249.2 310.191 250.9 C 311.591 252.7 313.091 255 313.991 257.1 C 314.991 259.2 315.791 261.8 316.191 264.2 C 316.591 266.5 316.591 269.4 316.391 271.8 C 316.091 274.2 315.391 277 314.491 279.4 C 313.491 281.7 312.091 284.3 310.491 286.4 C 308.991 288.5 306.791 290.7 304.691 292.3 C 302.591 294 299.891 295.6 297.391 296.6 C 294.791 297.7 291.691 298.6 288.891 299 C 286.091 299.4 282.691 299.4 279.891 299.1 C 276.991 298.7 273.691 297.9 270.991 296.8 C 268.191 295.7 265.191 294 262.791 292.2 C 260.291 290.4 257.791 287.9 255.891 285.6 C 253.991 283.1 252.191 280 250.991 277.2 C 249.791 274.3 248.791 270.8 248.391 267.6 C 247.991 265.1 247.091 262.1 246.091 259.7 C 244.991 257.4 243.491 254.9 241.891 252.9 C 240.291 250.9 238.191 248.9 236.091 247.5 C 234.091 246 231.591 244.7 229.291 243.8 C 227.091 243 224.391 242.3 221.991 242.1 C 219.691 241.9 216.991 241.9 214.691 242.3 C 212.391 242.7 209.891 243.4 207.891 244.4 C 205.891 245.3 203.691 246.6 201.991 248 C 200.391 249.3 198.691 251.1 197.491 252.8 C 196.291 254.5 195.191 256.6 194.491 258.5 C 193.791 260.3 193.291 262.6 193.191 264.5 C 192.991 266.4 193.091 268.6 193.491 270.5 C 193.891 272.3 194.491 274.3 195.391 275.9 C 196.091 277.5 197.291 279.2 198.491 280.6 C 199.591 281.8 201.091 283.1 202.591 284.1 C 203.991 285 205.691 285.8 207.291 286.3 C 208.791 286.8 210.591 287.1 212.191 287.2 C 213.791 287.3 215.491 287.1 216.991 286.8 C 218.491 286.5 220.091 285.9 221.291 285.2 C 222.591 284.5 223.891 283.6 224.891 282.6 C 225.891 281.7 226.791 280.5 227.491 279.4 C 228.191 278.3 228.691 277 229.091 275.8 C 229.391 274.7 229.591 273.3 229.491 272.1 C 229.491 271 229.291 269.7 228.991 268.6 C 228.691 267.6 228.191 266.5 227.591 265.6 C 227.091 264.8 226.291 263.9 225.591 263.3 C 224.891 262.6 223.991 262 223.091 261.6 C 222.291 261.3 221.391 261 220.491 260.8 C 219.691 260.7 218.791 260.7 217.991 260.8 C 217.191 260.8 216.391 261.1 215.691 261.4 C 215.091 261.6 214.391 262.1 213.891 262.5 C 213.391 262.9 212.891 263.5 212.591 264 C 212.291 264.5 211.991 265 211.891 265.6 C 211.791 266.1 211.691 266.7 211.791 267.1 C 211.791 267.6 211.991 268.1 212.191 268.5 C 212.291 268.8 212.591 269.2 212.891 269.5 C 213.091 269.7 213.491 269.9 213.791 270 C 214.091 270.2 214.391 270.2 214.691 270.2 C 214.991 270.2 215.291 270 215.591 269.9 C 215.791 269.8 215.991 269.5 216.091 269.3 C 216.191 269.1 216.391 268.9 216.591 268.7 C 216.891 268.6 217.191 268.5 217.491 268.4 C 217.791 268.4 218.091 268.5 218.391 268.6 C 218.691 268.7 219.091 268.9 219.291 269.1 C 219.591 269.4 219.891 269.8 220.091 270.1 C 220.191 270.5 220.391 271 220.391 271.5 C 220.491 272 220.391 272.6 220.291 273 C 220.191 273.6 219.891 274.2 219.591 274.6 C 219.291 275.2 218.791 275.7 218.291 276.1 C 217.791 276.6 217.191 277 216.491 277.2 C 215.791 277.5 214.991 277.8 214.291 277.9 C 213.391 278 212.491 277.9 211.691 277.8 C 210.791 277.7 209.891 277.4 209.091 277 C 208.191 276.6 207.291 276 206.591 275.4 C 205.891 274.7 205.091 273.8 204.591 273 C 203.991 272.1 203.491 271 203.191 270 C 202.891 268.9 202.691 267.6 202.691 266.5 C 202.691 265.3 202.791 264 203.091 262.8 C 203.491 261.6 203.991 260.3 204.691 259.2 C 205.391 258.1 206.291 256.9 207.291 256 C 208.291 255 209.591 254.1 210.891 253.4 C 212.091 252.8 213.691 252.2 215.191 251.8 C 216.691 251.5 218.391 251.4 219.991 251.4 C 221.591 251.5 223.391 251.8 224.891 252.3 C 226.491 252.8 228.191 253.6 229.591 254.5 C 231.091 255.5 232.591 256.8 233.691 258.1 C 234.891 259.4 236.091 261.1 236.891 262.7 C 237.691 264.3 238.291 266.3 238.691 268.1 C 239.091 270 239.191 272.2 238.991 274.1 C 238.891 276.1 238.391 278.3 237.691 280.1 C 236.991 282 235.891 284.1 234.691 285.8 C 233.491 287.5 231.791 289.3 230.191 290.6 C 228.491 292 226.291 293.4 224.291 294.3 C 222.291 295.2 219.791 295.9 217.491 296.3 C 215.191 296.7 212.491 296.8 210.191 296.5 C 207.791 296.3 205.091 295.7 202.891 294.8 C 200.591 293.9 198.091 292.6 196.091 291.2 C 194.091 289.7 191.891 287.7 190.291 285.8 C 188.691 283.8 187.191 281.2 186.091 278.9 C 185.091 276.5 184.191 273.6 183.791 271 C 183.391 268.3 183.391 265.2 183.691 262.5 C 183.991 259.8 184.791 256.7 185.891 254.2 C 186.891 251.5 188.591 248.7 190.291 246.4 C 191.991 244.1 194.391 241.8 196.691 240 C 199.091 238.2 202.091 236.4 204.891 235.3 C 207.691 234.1 211.091 233.2 214.191 232.8 C 217.291 232.4 220.891 232.4 223.991 232.8 C 227.191 233.2 230.791 234.1 233.691 235.3 C 236.191 236.3 239.191 237 241.791 237.3 C 244.391 237.6 247.391 237.5 249.991 237.2 C 252.491 236.8 255.291 236 257.591 235 C 259.891 234 262.291 232.5 264.191 231 C 266.091 229.5 267.991 227.5 269.391 225.6 C 270.791 223.7 271.991 221.4 272.891 219.3 C 273.691 217.2 274.291 214.7 274.491 212.4 C 274.691 210.3 274.591 207.8 274.191 205.7 C 273.791 203.6 273.091 201.3 272.191 199.4 C 271.291 197.5 269.991 195.5 268.691 194 C 267.391 192.5 265.691 191 264.091 189.9 C 262.491 188.8 260.491 187.8 258.691 187.2 C 256.891 186.6 254.791 186.1 252.891 186 C 251.091 185.9 248.991 186 247.291 186.3 C 245.591 186.7 243.691 187.3 242.091 188.1 C 240.691 188.8 239.091 189.9 237.791 191 C 236.591 192 235.391 193.4 234.591 194.8 C 233.691 196 232.991 197.6 232.491 199 C 232.091 200.4 231.791 202.1 231.791 203.5 C 231.691 204.9 231.891 206.5 232.191 207.8 C 232.591 209.1 233.091 210.5 233.791 211.7 C 234.391 212.7 235.291 213.9 236.191 214.8 C 236.991 215.6 238.091 216.5 239.191 217 C 240.191 217.6 241.391 218.1 242.491 218.3 C 243.591 218.6 244.791 218.7 245.891 218.6 C 246.891 218.6 247.991 218.4 248.991 218.1 C 249.891 217.8 250.891 217.3 251.591 216.8 C 252.391 216.3 253.091 215.7 253.691 215 C 254.191 214.4 254.691 213.6 254.991 212.8 C 255.291 212.2 255.491 211.3 255.591 210.6 C 255.691 209.9 255.591 209.1 255.491 208.5 C 255.391 207.9 255.091 207.2 254.791 206.7 C 254.591 206.2 254.191 205.6 253.791 205.3 C 253.391 204.9 252.891 204.6 252.491 204.4 C 251.991 204.2 251.491 204.1 251.091 204 C 250.691 204 250.191 204 249.891 204.2 C 249.491 204.3 249.191 204.4 248.891 204.7 C 248.691 204.8 248.391 205.1 248.291 205.4 C 248.191 205.6 248.091 206 248.091 206.2 C 248.091 206.5 248.191 206.8 248.391 207 C 248.491 207.2 248.591 207.5 248.591 207.7 C 248.691 208 248.591 208.3 248.491 208.6 C 248.291 208.8 248.091 209.1 247.891 209.3 C 247.591 209.5 247.191 209.7 246.891 209.8 C 246.491 209.9 246.091 210 245.691 209.9 C 245.191 209.9 244.691 209.8 244.291 209.6 C 243.891 209.4 243.391 209 242.991 208.7 C 242.591 208.3 242.191 207.8 241.891 207.3 C 241.591 206.8 241.391 206.1 241.291 205.5 C 241.091 204.8 241.091 204.1 241.191 203.4 C 241.291 202.6 241.491 201.8 241.791 201.1 C 242.091 200.4 242.591 199.6 243.091 199 C 243.691 198.3 244.391 197.6 245.091 197.2 C 245.891 196.6 246.891 196.2 247.791 195.9 C 248.691 195.6 249.891 195.4 250.891 195.3 C 251.991 195.3 253.191 195.4 254.291 195.7 C 255.391 195.9 256.591 196.4 257.591 196.9 C 258.591 197.5 259.691 198.4 260.591 199.2 C 261.491 200.1 262.391 201.2 262.991 202.3 C 263.591 203.5 264.191 204.9 264.491 206.2 C 264.891 207.5 264.991 209.1 264.991 210.5 C 264.891 211.9 264.691 213.5 264.191 214.9 C 263.791 216.4 262.991 217.9 262.191 219.2 C 261.291 220.5 260.091 221.9 258.891 223 C 257.691 224.1 256.091 225.2 254.591 225.9 C 253.091 226.7 251.191 227.3 249.491 227.6 C 247.691 228 245.591 228.1 243.791 228 C 241.991 227.9 239.891 227.4 238.091 226.8 C 236.291 226.2 234.291 225.2 232.691 224.1 C 231.091 223 229.291 221.5 228.091 220 C 226.691 218.4 225.391 216.4 224.591 214.6 C 223.691 212.7 222.891 210.4 222.591 208.3 C 222.191 206.2 222.091 203.7 222.291 201.5 C 222.491 199.3 223.091 196.8 223.891 194.7 C 224.691 192.6 225.991 190.2 227.391 188.4 C 228.791 186.5 230.691 184.5 232.491 183 C 234.491 181.5 236.891 180 239.091 179 C 241.491 178 244.291 177.2 246.791 176.8 C 249.291 176.4 252.391 176.4 254.891 176.7 C 257.591 177 260.591 177.7 263.091 178.7 C 265.591 179.6 268.391 181.2 270.591 182.8 C 272.791 184.4 275.091 186.6 276.791 188.8 C 278.591 191 280.291 193.8 281.391 196.4 C 282.591 199.1 283.491 202.3 283.891 205.2 C 284.291 208.1 284.291 211.5 283.991 214.4 C 283.591 217.4 282.691 220.8 281.491 223.6 C 280.291 226.4 278.491 229.5 276.591 232 C 274.691 234.5 271.991 237.1 269.491 239 C 267.391 240.6 265.291 242.8 263.691 244.9 C 262.191 247 260.691 249.6 259.791 251.9 C 258.791 254.3 258.091 257.1 257.891 259.5 C 257.591 261.9 257.691 264.8 258.091 267.1 C 258.391 269.5 259.191 272.1 260.191 274.2 C 261.191 276.3 262.591 278.6 264.091 280.4 C 265.491 282.1 267.391 283.9 269.291 285.1 C 271.091 286.4 273.291 287.6 275.391 288.3 C 277.391 289 279.791 289.6 281.891 289.8 C 283.991 289.9 286.391 289.8 288.391 289.5 C 290.291 289.1 292.591 288.4 294.391 287.6 C 296.091 286.8 297.991 285.6 299.391 284.3 C 300.791 283.1 302.291 281.5 303.291 280 C 304.291 278.5 305.291 276.7 305.791 275 C 306.391 273.4 306.791 271.5 306.891 269.8 C 306.991 268.1 306.791 266.3 306.491 264.7 C 306.091 263.1 305.491 261.4 304.791 260 C 304.091 258.7 303.091 257.2 301.991 256.1 C 300.991 255.1 299.691 254 298.491 253.2 C 297.291 252.5 295.791 251.9 294.391 251.5 C 293.191 251.1 291.591 250.9 290.291 250.9 C 288.991 250.9 287.591 251 286.391 251.4 C 285.191 251.7 283.891 252.2 282.891 252.8 C 281.891 253.4 280.891 254.2 280.091 255 C 279.291 255.7 278.591 256.7 278.091 257.7 C 277.591 258.5 277.191 259.6 276.991 260.6 C 276.791 261.5 276.791 262.6 276.791 263.5 C 276.891 264.4 277.091 265.3 277.391 266.1 C 277.691 266.9 278.191 267.7 278.691 268.4 C 279.091 268.9 279.691 269.5 280.291 270 C 280.891 270.4 281.591 270.7 282.191 271 C 282.791 271.2 283.591 271.3 284.191 271.3 C 284.691 271.3 285.391 271.3 285.891 271.1 C 286.391 271 286.991 270.7 287.391 270.4 C 287.691 270.2 288.091 269.8 288.391 269.4 C 288.591 269.1 288.791 268.7 288.891 268.3 C 288.991 268 288.991 267.6 288.891 267.2 C 288.891 267 288.691 266.6 288.591 266.4 C 288.391 266.2 288.091 265.9 287.891 265.8 C 287.691 265.7 287.391 265.6 287.091 265.7 Z"></path>
    <path d="M 37 5 S 199 204 199 204" fill="rgb(255, 255, 255)"></path>
</svg>