<?xml version="1.0" encoding="UTF-8"?>
<svg xmlns="http://www.w3.org/2000/svg" viewBox="0 0 500 500">
    <title>Mistribe logo</title>
    <g>
        <polygon points="150,359.81 100,359.81 250,100 400,359.81 350,359.81 330,325.17 250,475 170,325.17"
                 stroke="black"
                 stroke-width="15" fill="none"/>
        <path d="M287.5 400 L250 325.17 L212.5 400" stroke="black" stroke-width="15" fill="none"/>
    </g>
    <path d="M268.75 407.5 L250 370 L231.25 407.5"
          stroke-linecap="round"
          stroke="black" stroke-width="8" fill="none"/>
    <!-- Right tree -->
    <g stroke="black" stroke-width="10">
        <path d="M125 320 L125 180" stroke-linecap="round"/>
        <path d="M125 230 L155 195" stroke-linecap="round"/>
        <path d="M125 265 L155 230" stroke-linecap="round"/>
        <path d="M125 300 L95 265" stroke-linecap="round"/>
        <path d="M125 265 L95 230" stroke-linecap="round"/>
        <path d="M125 230 L95 195" stroke-linecap="round"/>
    </g>
    <!-- Left tree -->
    <g stroke="black" stroke-width="10">
        <path d="M375 320 L375 180" stroke-linecap="round"/>
        <path d="M375 230 L405 195" stroke-linecap="round"/>
        <path d="M375 265 L405 230" stroke-linecap="round"/>
        <path d="M375 300 L405 265" stroke-linecap="round"/>
        <path d="M375 265 L345 230" stroke-linecap="round"/>
        <path d="M375 230 L345 195" stroke-linecap="round"/>
    </g>
    <path fill="rgb(0,0,0)" stroke="none"
          d="M 291.849 277.21 C 291.559 277.225 291.217 277.151 290.957 277.02 C 290.681 276.882 290.404 276.635 290.224 276.383 C 290.026 276.102 289.876 275.721 289.817 275.382 C 289.75 274.995 289.774 274.534 289.864 274.153 C 289.966 273.72 290.188 273.244 290.44 272.877 C 290.728 272.461 291.151 272.044 291.562 271.751 C 292.027 271.419 292.628 271.134 293.175 270.972 C 293.785 270.789 294.521 270.699 295.158 270.715 C 295.862 270.734 296.669 270.886 297.336 271.116 C 298.068 271.368 298.864 271.791 299.49 272.247 C 300.173 272.745 300.871 273.439 301.381 274.113 C 301.934 274.844 302.443 275.78 302.767 276.638 C 303.116 277.563 303.359 278.686 303.435 279.672 C 303.516 280.731 303.43 281.961 303.214 283.001 C 302.983 284.112 302.533 285.351 302.005 286.356 C 301.444 287.424 300.622 288.561 299.788 289.437 C 298.905 290.365 297.738 291.289 296.635 291.942 C 295.468 292.633 294.016 293.239 292.707 293.589 C 291.325 293.959 289.679 294.16 288.25 294.144 C 286.745 294.127 285.02 293.866 283.575 293.447 C 282.06 293.007 280.388 292.259 279.045 291.429 C 277.638 290.561 276.161 289.339 275.037 288.127 C 273.862 286.861 272.713 285.219 271.917 283.686 C 271.087 282.087 270.387 280.117 270.011 278.355 C 269.619 276.519 269.459 274.348 269.568 272.475 C 269.68 270.525 270.117 268.305 270.741 266.455 C 271.389 264.534 272.434 262.431 273.567 260.748 C 274.74 259.005 276.361 257.187 277.953 255.813 C 279.602 254.392 281.718 253.017 283.683 252.081 C 285.715 251.11 288.201 250.314 290.418 249.913 C 292.708 249.498 295.402 249.38 297.721 249.582 C 300.115 249.79 302.83 250.402 305.086 251.232 C 307.411 252.087 309.949 253.431 311.968 254.865 C 314.049 256.344 316.21 258.366 317.83 260.337 C 319.498 262.368 321.1 264.959 322.178 267.355 C 323.287 269.82 324.179 272.823 324.604 275.493 C 325.042 278.238 325.12 281.457 324.824 284.22 C 324.52 287.057 323.733 290.269 322.699 292.929 C 321.637 295.659 319.994 298.63 318.256 300.988 C 316.473 303.406 314.051 305.908 311.698 307.777 C 309.286 309.691 306.22 311.52 303.393 312.739 C 300.496 313.988 296.974 314.977 293.851 315.427 C 290.653 315.886 286.909 315.923 283.702 315.534 C 280.42 315.136 276.711 314.172 273.648 312.931 C 270.513 311.662 267.108 309.723 264.413 307.681 C 261.657 305.593 258.813 302.771 256.698 300.037 C 254.535 297.244 252.48 293.704 251.121 290.443 C 249.731 287.114 248.647 283.076 248.173 279.498 C 247.731 276.528 246.775 273.179 245.573 270.426 C 244.401 267.741 242.648 264.834 240.815 262.549 C 239.029 260.323 236.64 258.035 234.336 256.353 C 232.09 254.715 229.263 253.173 226.668 252.18 C 224.145 251.214 221.097 250.485 218.407 250.213 C 215.793 249.948 212.748 250.041 210.156 250.47 C 207.637 250.887 204.807 251.748 202.485 252.81 C 200.233 253.842 197.8 255.367 195.897 256.953 C 194.052 258.492 192.164 260.538 190.787 262.506 C 189.453 264.414 188.208 266.807 187.422 268.997 C 186.661 271.116 186.108 273.668 185.931 275.913 C 185.76 278.082 185.893 280.603 186.3 282.741 C 186.693 284.806 187.457 287.121 188.38 289.008 C 189.27 290.83 190.569 292.788 191.91 294.309 C 193.199 295.773 194.904 297.262 196.536 298.335 C 198.104 299.365 200.064 300.313 201.849 300.891 C 203.564 301.447 205.62 301.825 207.42 301.906 C 209.146 301.983 211.142 301.809 212.826 301.425 C 214.437 301.057 216.234 300.388 217.69 299.605 C 219.08 298.855 220.563 297.783 221.703 296.689 C 222.788 295.648 223.876 294.285 224.643 292.99 C 225.371 291.759 226.02 290.233 226.39 288.852 C 226.741 287.543 226.944 285.982 226.928 284.627 C 226.914 283.344 226.698 281.873 226.335 280.644 C 225.993 279.485 225.42 278.205 224.775 277.183 C 224.169 276.223 223.322 275.214 222.475 274.459 C 221.683 273.752 220.66 273.063 219.702 272.604 C 218.811 272.176 217.717 271.824 216.741 271.665 C 215.836 271.515 214.77 271.488 213.861 271.602 C 213.022 271.707 212.073 271.965 211.3 272.307 C 210.592 272.622 209.828 273.099 209.243 273.607 C 208.711 274.07 208.176 274.692 207.807 275.293 C 207.474 275.836 207.184 276.519 207.037 277.139 C 206.905 277.693 206.852 278.358 206.907 278.925 C 206.955 279.428 207.105 280.002 207.321 280.459 C 207.512 280.862 207.813 281.292 208.137 281.597 C 208.422 281.865 208.81 282.117 209.178 282.251 C 209.501 282.369 209.907 282.431 210.249 282.399 C 210.557 282.37 210.909 282.253 211.167 282.084 C 211.41 281.925 211.645 281.664 211.777 281.406 C 211.908 281.148 212.145 280.889 212.387 280.729 C 212.645 280.56 212.997 280.443 213.306 280.413 C 213.648 280.382 214.053 280.443 214.377 280.562 C 214.743 280.696 215.133 280.947 215.417 281.216 C 215.742 281.522 216.042 281.951 216.234 282.354 C 216.45 282.81 216.6 283.385 216.648 283.888 C 216.702 284.456 216.648 285.12 216.517 285.674 C 216.369 286.293 216.079 286.977 215.747 287.52 C 215.379 288.121 214.843 288.743 214.311 289.206 C 213.726 289.713 212.962 290.191 212.254 290.505 C 211.482 290.848 210.532 291.105 209.694 291.211 C 208.784 291.325 207.718 291.298 206.814 291.149 C 205.837 290.989 204.744 290.637 203.851 290.209 C 202.894 289.75 201.871 289.061 201.079 288.354 C 200.232 287.598 199.385 286.59 198.779 285.63 C 198.133 284.608 197.56 283.329 197.219 282.169 C 196.857 280.94 196.641 279.468 196.626 278.186 C 196.611 276.831 196.812 275.27 197.164 273.96 C 197.535 272.58 198.183 271.053 198.912 269.823 C 199.678 268.528 200.766 267.165 201.852 266.124 C 202.992 265.03 204.474 263.958 205.864 263.208 C 207.32 262.425 209.117 261.756 210.728 261.389 C 212.412 261.004 214.408 260.83 216.135 260.908 C 217.935 260.988 219.99 261.366 221.705 261.922 C 223.491 262.501 225.45 263.448 227.019 264.479 C 228.651 265.551 230.355 267.039 231.645 268.503 C 232.984 270.025 234.284 271.983 235.174 273.804 C 236.097 275.693 236.862 278.007 237.255 280.071 C 237.661 282.21 237.794 284.73 237.623 286.9 C 237.447 289.146 236.893 291.697 236.133 293.816 C 235.347 296.007 234.102 298.4 232.767 300.307 C 231.39 302.275 229.503 304.321 227.657 305.86 C 225.753 307.446 223.321 308.971 221.069 310.003 C 218.748 311.065 215.916 311.926 213.399 312.343 C 210.806 312.772 207.762 312.865 205.146 312.6 C 202.458 312.328 199.41 311.599 196.886 310.633 C 194.291 309.64 191.463 308.098 189.219 306.46 C 186.913 304.778 184.525 302.491 182.739 300.265 C 180.906 297.979 179.154 295.072 177.981 292.387 C 176.779 289.634 175.823 286.285 175.381 283.314 C 174.928 280.268 174.879 276.699 175.236 273.639 C 175.603 270.506 176.508 266.963 177.68 264.033 C 178.88 261.033 180.72 257.772 182.661 255.19 C 184.647 252.547 187.335 249.817 189.942 247.784 C 192.609 245.703 195.991 243.725 199.107 242.412 C 202.293 241.069 206.158 240.017 209.583 239.551 C 213.084 239.075 217.178 239.067 220.68 239.518 C 224.259 239.98 228.298 241.06 231.633 242.439 C 234.427 243.541 237.804 244.388 240.79 244.722 C 243.702 245.049 247.095 244.986 249.99 244.541 C 252.811 244.107 255.987 243.183 258.596 242.028 C 261.136 240.902 263.886 239.225 266.043 237.474 C 268.143 235.771 270.297 233.496 271.878 231.303 C 273.414 229.171 274.857 226.488 275.781 224.028 C 276.678 221.64 277.349 218.757 277.59 216.216 C 277.822 213.75 277.717 210.879 277.296 208.439 C 276.886 206.072 276.057 203.413 275.041 201.237 C 274.057 199.128 272.607 196.853 271.103 195.078 C 269.648 193.359 267.714 191.604 265.859 190.329 C 264.065 189.096 261.816 187.95 259.761 187.233 C 257.776 186.54 255.39 186.046 253.293 185.901 C 251.271 185.762 248.925 185.908 246.939 186.307 C 245.025 186.692 242.883 187.424 241.14 188.301 C 239.463 189.144 237.663 190.368 236.268 191.625 C 234.93 192.832 233.575 194.424 232.605 195.942 C 231.675 197.398 230.827 199.213 230.318 200.865 C 229.83 202.443 229.512 204.334 229.462 205.986 C 229.416 207.564 229.604 209.385 229.98 210.918 C 230.34 212.379 230.976 214.003 231.714 215.314 C 232.416 216.561 233.412 217.886 234.423 218.898 C 235.382 219.856 236.632 220.812 237.813 221.475 C 238.932 222.104 240.314 222.654 241.56 222.954 C 242.734 223.237 244.129 223.381 245.337 223.333 C 246.471 223.287 247.768 223.059 248.846 222.703 C 249.855 222.37 250.962 221.829 251.838 221.23 C 252.655 220.671 253.506 219.9 254.133 219.135 C 254.715 218.425 255.27 217.516 255.627 216.672 C 255.955 215.892 256.207 214.941 256.296 214.101 C 256.379 213.33 256.347 212.43 256.2 211.67 C 256.065 210.978 255.794 210.203 255.458 209.583 C 255.153 209.024 254.706 208.431 254.244 207.993 C 253.83 207.603 253.281 207.224 252.763 206.988 C 252.303 206.778 251.731 206.619 251.226 206.58 C 250.782 206.544 250.26 206.589 249.833 206.718 C 249.459 206.829 249.047 207.04 248.747 207.291 C 248.482 207.511 248.226 207.831 248.083 208.145 C 247.954 208.425 247.878 208.79 247.896 209.098 C 247.914 209.388 248.02 209.721 248.178 209.964 C 248.337 210.207 248.443 210.542 248.46 210.831 C 248.478 211.14 248.403 211.503 248.274 211.785 C 248.13 212.097 247.875 212.418 247.61 212.638 C 247.31 212.889 246.898 213.099 246.524 213.212 C 246.096 213.339 245.574 213.387 245.13 213.351 C 244.626 213.309 244.054 213.153 243.594 212.942 C 243.075 212.706 242.526 212.327 242.112 211.935 C 241.65 211.498 241.203 210.906 240.9 210.346 C 240.563 209.727 240.291 208.951 240.157 208.26 C 240.009 207.499 239.978 206.598 240.06 205.828 C 240.15 204.987 240.402 204.037 240.73 203.259 C 241.086 202.413 241.642 201.504 242.223 200.795 C 242.85 200.03 243.702 199.258 244.518 198.699 C 245.394 198.099 246.503 197.559 247.511 197.226 C 248.589 196.871 249.886 196.641 251.02 196.596 C 252.228 196.548 253.623 196.692 254.796 196.975 C 256.043 197.276 257.425 197.826 258.543 198.453 C 259.725 199.118 260.975 200.073 261.933 201.033 C 262.944 202.044 263.942 203.369 264.642 204.615 C 265.38 205.926 266.017 207.55 266.376 209.01 C 266.754 210.543 266.941 212.365 266.895 213.942 C 266.845 215.595 266.526 217.485 266.039 219.065 C 265.53 220.716 264.682 222.531 263.752 223.987 C 262.782 225.507 261.426 227.097 260.088 228.304 C 258.694 229.561 256.895 230.785 255.217 231.629 C 253.473 232.505 251.332 233.238 249.418 233.622 C 247.431 234.021 245.085 234.168 243.063 234.028 C 240.966 233.883 238.581 233.388 236.596 232.696 C 234.54 231.979 232.292 230.834 230.498 229.601 C 228.642 228.326 226.71 226.571 225.254 224.852 C 223.75 223.076 222.3 220.802 221.316 218.693 C 220.299 216.516 219.471 213.858 219.062 211.491 C 218.64 209.049 218.535 206.179 218.768 203.713 C 219.008 201.172 219.678 198.29 220.575 195.9 C 221.5 193.44 222.943 190.758 224.479 188.625 C 226.059 186.432 228.214 184.158 230.313 182.455 C 232.471 180.705 235.221 179.028 237.761 177.903 C 240.369 176.746 243.546 175.822 246.366 175.389 C 249.261 174.943 252.656 174.879 255.567 175.206 C 258.552 175.542 261.93 176.388 264.724 177.492 C 267.589 178.623 270.705 180.363 273.175 182.202 C 275.706 184.087 278.322 186.642 280.272 189.123 C 282.27 191.661 284.174 194.886 285.44 197.858 C 286.736 200.899 287.756 204.592 288.214 207.867 C 288.682 211.215 288.706 215.134 288.285 218.49 C 287.854 221.919 286.833 225.793 285.523 228.993 C 284.185 232.262 282.146 235.812 280.003 238.62 C 277.814 241.488 274.859 244.445 271.998 246.644 C 269.646 248.512 267.224 251.015 265.44 253.433 C 263.703 255.79 262.06 258.762 260.998 261.492 C 259.963 264.15 259.176 267.363 258.873 270.201 C 258.577 272.964 258.654 276.183 259.092 278.927 C 259.518 281.596 260.409 284.6 261.519 287.064 C 262.597 289.461 264.198 292.053 265.866 294.083 C 267.487 296.055 269.648 298.077 271.728 299.555 C 273.748 300.991 276.286 302.334 278.611 303.19 C 280.866 304.018 283.583 304.63 285.976 304.839 C 288.295 305.041 290.989 304.921 293.279 304.507 C 295.495 304.106 297.982 303.31 300.013 302.341 C 301.978 301.403 304.095 300.028 305.743 298.606 C 307.336 297.235 308.957 295.415 310.131 293.671 C 311.263 291.991 312.308 289.886 312.956 287.964 C 313.58 286.116 314.017 283.895 314.129 281.946 C 314.238 280.072 314.077 277.902 313.687 276.066 C 313.31 274.302 312.61 272.334 311.779 270.734 C 310.984 269.201 309.835 267.559 308.659 266.292 C 307.536 265.08 306.058 263.859 304.651 262.991 C 303.309 262.161 301.638 261.414 300.121 260.973 C 298.677 260.553 296.952 260.293 295.447 260.277 C 294.019 260.261 292.372 260.463 290.99 260.832 C 289.681 261.183 288.229 261.787 287.062 262.479 C 285.959 263.133 284.792 264.054 283.908 264.984 C 283.075 265.859 282.253 266.995 281.691 268.065 C 281.164 269.07 280.714 270.308 280.482 271.419 C 280.266 272.459 280.181 273.689 280.262 274.747 C 280.338 275.733 280.581 276.857 280.929 277.782 C 281.254 278.64 281.763 279.576 282.316 280.308 C 282.827 280.981 283.524 281.674 284.207 282.173 C 284.833 282.629 285.629 283.052 286.362 283.304 C 287.028 283.533 287.835 283.686 288.539 283.704 C 289.176 283.721 289.912 283.631 290.522 283.449 C 291.069 283.286 291.67 283 292.135 282.669 C 292.546 282.375 292.969 281.959 293.257 281.543 C 293.509 281.175 293.731 280.701 293.833 280.266 C 293.923 279.886 293.947 279.424 293.88 279.039 C 293.821 278.7 293.671 278.318 293.473 278.037 C 293.293 277.785 293.016 277.539 292.74 277.4 C 292.48 277.269 292.138 277.195 291.849 277.21 Z"
          transform="matrix(1, 0, 0, 1, -1.4210854715202004e-14, 0)"/>
</svg>